<?xml version="1.0" standalone="no"?>
<!DOCTYPE svg PUBLIC "-//W3C//DTD SVG 20010904//EN"
 "http://www.w3.org/TR/2001/REC-SVG-20010904/DTD/svg10.dtd">
<svg version="1.0" xmlns="http://www.w3.org/2000/svg"
 width="651.000000pt" height="651.000000pt" viewBox="0 0 651.000000 651.000000"
 preserveAspectRatio="xMidYMid meet">
<metadata>
Created by potrace 1.14, written by Peter Selinger 2001-2017
</metadata>
<g transform="translate(0.000000,651.000000) scale(0.100000,-0.100000)"
fill="#000000" stroke="none">
<path d="M2908 5575 c-2 -2 -57 -6 -123 -10 -66 -4 -140 -9 -165 -11 -97 -7
-271 -28 -355 -41 -47 -7 -53 -8 -125 -17 -30 -4 -74 -11 -98 -17 -23 -5 -59
-12 -80 -15 -20 -3 -44 -7 -52 -9 -8 -2 -28 -7 -45 -10 -30 -5 -43 -7 -120
-25 -160 -35 -461 -115 -555 -148 -30 -11 -57 -19 -60 -19 -9 0 -111 -34 -235
-80 -148 -54 -149 -54 -155 -55 -23 -1 -40 -22 -34 -41 12 -37 96 -207 105
-213 5 -3 7 -9 4 -14 -3 -4 2 -13 10 -20 11 -9 47 1 177 53 134 53 382 142
423 151 6 1 35 10 65 19 62 18 207 57 231 62 8 2 44 10 80 19 35 8 91 20 124
27 33 7 65 14 70 15 6 1 30 5 55 9 24 4 47 8 50 10 3 2 30 6 60 10 30 3 62 8
70 10 8 3 38 7 65 10 28 2 59 6 70 9 17 3 78 10 190 22 256 26 1063 26 1204
-1 9 -1 51 -6 93 -9 42 -4 87 -9 100 -11 13 -3 43 -8 68 -11 86 -10 285 -45
355 -60 39 -9 81 -18 95 -20 33 -7 256 -62 295 -74 280 -85 565 -186 672 -238
l43 -20 70 141 71 142 -28 12 c-70 31 -191 74 -343 123 -91 29 -174 56 -185
61 -11 4 -45 14 -75 23 -132 36 -297 78 -319 82 -12 3 -53 12 -90 20 -36 9
-77 18 -91 21 -14 2 -44 8 -68 14 -23 5 -59 12 -80 15 -20 3 -44 7 -52 9 -8 3
-33 7 -55 10 -63 10 -96 15 -155 25 -30 5 -80 12 -110 15 -30 3 -71 7 -90 9
-110 14 -218 24 -330 32 -90 6 -637 13 -642 9z"/>
<path d="M2508 5095 c-2 -2 -37 -6 -78 -9 -127 -12 -142 -14 -245 -31 -55 -9
-116 -19 -135 -22 -45 -6 -351 -73 -360 -78 -4 -2 -20 -6 -36 -9 -34 -6 -290
-82 -319 -95 -11 -4 -78 -30 -150 -56 -71 -26 -163 -63 -203 -81 l-74 -34 37
-47 c93 -117 236 -239 380 -325 70 -42 244 -129 246 -122 4 13 6 23 14 59 29
144 153 241 345 270 25 4 54 9 65 11 40 9 213 18 339 18 107 1 129 -2 131 -14
12 -75 16 -97 20 -110 5 -18 55 -291 60 -335 3 -16 7 -41 10 -55 5 -26 40
-218 50 -280 3 -19 13 -73 21 -120 9 -47 18 -94 20 -105 2 -11 15 -85 29 -165
15 -80 30 -167 35 -195 5 -27 16 -90 25 -140 9 -49 18 -101 20 -115 3 -14 9
-50 15 -80 6 -30 13 -73 16 -95 3 -22 7 -48 10 -57 3 -10 7 -30 10 -45 2 -16
7 -44 10 -63 3 -19 8 -46 10 -60 2 -14 9 -45 14 -70 9 -41 21 -110 35 -200 5
-31 18 -103 41 -225 4 -22 9 -47 10 -55 2 -15 40 -225 49 -270 3 -14 8 -45 11
-70 3 -25 8 -48 10 -51 2 -3 8 -34 13 -70 6 -35 13 -75 16 -89 3 -14 7 -38 10
-55 2 -16 7 -42 9 -58 3 -15 10 -53 16 -85 6 -31 12 -68 15 -82 3 -14 10 -51
15 -83 22 -124 32 -182 34 -192 2 -5 9 -45 16 -89 7 -44 16 -72 20 -65 7 14
25 108 22 120 -1 4 3 22 8 40 5 18 12 53 15 78 3 26 7 53 10 61 2 8 7 29 9 45
3 17 16 93 30 170 36 206 35 201 56 320 24 140 29 165 34 193 3 13 14 76 25
140 12 64 23 128 26 142 3 14 12 68 21 120 9 52 18 104 21 115 2 11 6 29 7 40
2 11 6 34 9 50 4 17 16 86 27 155 12 69 26 145 31 169 5 24 12 65 15 90 3 25
7 48 9 51 2 4 7 29 11 56 3 27 8 58 10 69 7 33 23 117 29 155 3 19 8 42 10 50
2 8 7 33 10 55 3 23 7 52 10 65 3 14 16 90 30 170 15 80 35 197 47 260 11 63
22 124 24 135 2 11 5 31 8 45 3 14 7 41 10 60 3 19 10 58 15 85 6 28 13 66 15
85 3 19 10 60 16 90 10 55 14 75 25 138 7 46 14 83 20 112 2 13 7 42 11 64 3
22 8 44 11 49 4 7 335 1 398 -8 17 -3 53 -7 80 -10 70 -8 188 -41 243 -69 27
-13 66 -44 89 -69 38 -42 48 -63 82 -184 6 -22 9 -21 116 33 209 105 414 263
510 394 37 50 41 60 26 60 -5 0 -38 13 -73 29 -247 114 -718 257 -1003 305
-44 7 -204 34 -245 40 -19 3 -64 8 -100 12 -36 3 -71 7 -78 9 -7 3 -61 7 -121
11 l-108 6 -114 -139 c-63 -77 -175 -214 -249 -306 -74 -91 -138 -166 -142
-167 -3 0 -75 84 -160 188 -84 103 -160 196 -170 207 -50 60 -136 164 -155
188 -20 26 -26 28 -92 26 -39 -1 -72 -3 -73 -4z"/>
</g>
</svg>
